<svg width="24" height="24" viewBox="0 0 24 24" fill="none" xmlns="http://www.w3.org/2000/svg">
<g id="&#231;&#188;&#150;&#231;&#187;&#132; 2">
<circle id="&#230;&#164;&#173;&#229;&#156;&#134;&#229;&#189;&#162;" cx="12" cy="12" r="12" fill="#848e9c"/>
<path id="Union" fill-rule="evenodd" clip-rule="evenodd" d="M8 6C6.89543 6 6 6.89543 6 8V8.8C6 9.90457 6.89543 10.8 8 10.8H8.8C9.90457 10.8 10.8 9.90457 10.8 8.8V8C10.8 6.89543 9.90457 6 8.8 6H8ZM15.2 6C14.0954 6 13.2 6.89543 13.2 8V8.8C13.2 9.90457 14.0954 10.8 15.2 10.8H16C17.1046 10.8 18 9.90457 18 8.8V8C18 6.89543 17.1046 6 16 6H15.2ZM6 15.2C6 14.0954 6.89543 13.2 8 13.2H8.8C9.90457 13.2 10.8 14.0954 10.8 15.2V16C10.8 17.1046 9.90457 18 8.8 18H8C6.89543 18 6 17.1046 6 16V15.2ZM15.2 13.2C14.0954 13.2 13.2 14.0954 13.2 15.2V16C13.2 17.1046 14.0954 18 15.2 18H16C17.1046 18 18 17.1046 18 16V15.2C18 14.0954 17.1046 13.2 16 13.2H15.2Z" fill="white"/>
</g>
</svg>
