<?xml version="1.0" encoding="UTF-8"?>
<svg width="24px" height="24px" viewBox="0 0 24 24" version="1.1" xmlns="http://www.w3.org/2000/svg" xmlns:xlink="http://www.w3.org/1999/xlink">
    <title>slice</title>
    <g id="WEB" stroke="none" stroke-width="1" fill="none" fill-rule="evenodd">
        <g id="header_setttings_h5" transform="translate(-514.000000, -604.000000)" fill-rule="nonzero">
            <g id="group-3" transform="translate(490.000000, 328.000000)">
                <g id="list-2" transform="translate(24.000000, 258.000000)">
                    <g id="group" transform="translate(0.000000, 13.000000)">
                        <g id="ICP" transform="translate(0.000000, 5.000000)">
                            <path d="M0,12 L0,12 C0,18.6274219 5.37257813,24 12,24 C18.6274219,24 24,18.6274219 24,12 L24,12 C24,5.37257813 18.6274219,0 12,0 C5.37257813,0 0,5.37257813 0,12 L0,12 Z" id="path" fill="#FFFFFF"></path>
                            <path d="M21.52125,13.3087482 C21.495,13.5637482 21.38625,13.7887482 21.27375,14.0099982 C20.52375,15.5249982 19.30875,16.4212482 17.64,16.6949982 C16.695,16.8524982 15.82875,16.6124982 15.015,16.1362482 C14.3625,15.7537482 13.78875,15.2812482 13.24125,14.7674982 C12.80625,14.3587482 12.40875,13.9087482 12.00375,13.4699982 C11.90625,13.3574982 11.8125,13.2412482 11.71125,13.1287482 C11.38125,12.7649982 11.0625,12.3937482 10.7175,12.0449982 C10.69875,12.0187482 10.68375,11.9924982 10.66125,11.9662482 C10.21125,11.4674982 9.7575,10.9724982 9.27,10.5112482 C8.6475,9.92249819 7.93125,9.47249819 7.1325,9.15374819 C7.0875,9.13499819 7.0425,9.11249819 6.99375,9.09749819 C6.25875,8.82374819 5.50875,8.80124819 4.7475,8.96999819 C3.99,9.13874819 3.35625,9.50624819 2.86125,10.1062482 C2.6925,10.3124982 2.56875,10.5449982 2.4375,10.7737482 C2.53875,10.3124982 2.73,9.89249819 2.985,9.49874819 C3.81,8.22374819 4.97625,7.48499819 6.4875,7.28249819 C7.395,7.16249819 8.21625,7.41374819 8.98875,7.86374819 C9.92625,8.41124819 10.70625,9.14249819 11.445,9.92624819 C11.62875,10.1212482 11.80875,10.3237482 11.9925,10.5187482 C12.405,11.0062482 12.84,11.4749982 13.27125,11.9437482 C13.51875,12.2174982 13.76625,12.4912482 14.0175,12.7574982 C14.46,13.2224982 14.89875,13.6949982 15.43875,14.0549982 C15.90375,14.3662482 16.38375,14.6549982 16.92,14.8387482 C16.935,14.8462482 16.95,14.8574982 16.965,14.8649982 C17.625,15.1199982 18.30375,15.1649982 18.9975,15.0524982 C19.87125,14.9099982 20.61,14.5274982 21.1725,13.8299982 C21.3,13.6687482 21.3975,13.4812482 21.52125,13.3087482 L21.52125,13.3087482 Z" id="path" fill="#2AAAE1"></path>
                            <path d="M21.71625,11.7262482 C21.66,10.7924982 21.35625,9.95249819 20.8125,9.19874819 C20.63625,8.95499819 20.44875,8.72249819 20.2125,8.53499819 C19.845,8.16374819 19.40625,7.88999819 18.93375,7.67624819 C18.1425,7.31999819 17.3175,7.16999819 16.45125,7.30874819 C15.72,7.42499819 15.075,7.75499819 14.475,8.17124819 C13.5225,8.82374819 12.7275,9.64874819 11.98875,10.5262482 C12.40125,11.0137482 12.83625,11.4824982 13.2675,11.9512482 C13.71,11.4299982 14.16,10.9124982 14.6625,10.4512482 C15.0375,10.1099982 15.435,9.79874819 15.86625,9.52874819 C16.72875,8.99624819 17.57625,9.07499819 18.4275,9.54749819 C18.58125,9.63374819 18.71625,9.73874819 18.85125,9.84749819 C19.215,10.1887482 19.5,10.5862482 19.665,11.0587482 C20.26125,12.7649982 19.125,14.5987482 17.33625,14.8237482 C17.19375,14.8424982 17.055,14.8387482 16.9125,14.8499982 C16.9275,14.8574982 16.9425,14.8687482 16.9575,14.8762482 C17.6175,15.1312482 18.29625,15.1762482 18.99,15.0637482 C19.86375,14.9212482 20.6025,14.5387482 21.165,13.8412482 C21.3,13.6762482 21.39375,13.4849982 21.5175,13.3124982 L21.51375,13.3124982 C21.51,13.2862482 21.51375,13.2637482 21.54,13.2562482 C21.56625,13.1662482 21.6,13.0762482 21.61875,12.9824982 C21.705,12.5662482 21.7425,12.1499982 21.71625,11.7262482 L21.71625,11.7262482 Z" id="path" fill="#F68830"></path>
                            <path d="M11.7075,13.1324982 C11.3775,12.7687482 11.05875,12.3974982 10.71375,12.0487482 C9.9975,12.9299982 9.22875,13.7587482 8.265,14.3849982 C7.96125,14.5837482 7.63875,14.7487482 7.27875,14.8162482 C6.84,14.8987482 6.42,14.8087482 6,14.6737482 C5.655,14.5612482 5.3775,14.3437482 5.09625,14.1337482 C4.98,14.0474982 4.89375,13.9162482 4.7925,13.8037482 C4.6725,13.6237482 4.52625,13.4549982 4.44,13.2562482 C4.29,12.9149982 4.18125,12.5587482 4.16625,12.1799982 C4.10625,10.7812482 4.98,9.59249819 6.32625,9.24374819 C6.58875,9.17624819 6.855,9.15374819 7.12875,9.16499819 C7.08375,9.14624819 7.03875,9.12374819 6.99,9.10874819 C6.255,8.83499819 5.505,8.81249819 4.74375,8.98124819 C3.98625,9.14999819 3.3525,9.51749819 2.8575,10.1174982 C2.68875,10.3237482 2.565,10.5562482 2.43375,10.7849982 C2.34375,11.0249982 2.3025,11.2799982 2.28,11.5312482 C2.2425,11.9624982 2.25,12.3937482 2.32875,12.8212482 C2.48625,13.6687482 2.8275,14.4224982 3.39375,15.0749982 C3.3975,15.0824982 3.40125,15.0937482 3.405,15.0974982 C4.27875,16.0912482 5.37,16.6424982 6.69375,16.7399982 C7.55625,16.8037482 8.33625,16.5487482 9.0675,16.1212482 C10.22625,15.4424982 11.14875,14.4974982 12.00375,13.4774982 C11.9025,13.3612482 11.80875,13.2449982 11.7075,13.1324982 L11.7075,13.1324982 Z" id="path" fill="#AB227E"></path>
                            <path d="M21.520506,13.3524982 C21.5076033,13.3058315 21.520506,13.2658315 21.6108251,13.2524982 C21.6108251,13.2924982 21.6495332,13.3458315 21.520506,13.3524982 Z" id="path" fill="#F68830"></path>
                        </g>
                    </g>
                </g>
            </g>
        </g>
    </g>
</svg>