<svg width="121" height="120" viewBox="0 0 121 120" fill="none" xmlns="http://www.w3.org/2000/svg">
<path fill-rule="evenodd" clip-rule="evenodd" d="M66.5831 0.0295289C61.898 6.66299 54.6279 23.6511 73.8532 36.2709C83.6451 42.6985 92.2706 45.0076 99.7022 62.1575C104.167 72.4611 104.188 88.6965 95.5018 101.473C74.8225 131.89 21.5088 125.094 17.9545 79.3074C23.9321 87.8824 37.7161 88.7717 44.7729 82.0579C51.2352 75.9098 52.4318 64.7951 40.0878 49.376C25.063 30.6082 39.6031 -1.10301 66.5831 0.0295289Z" fill="url(#paint0_linear_34_6500)"/>
<path fill-rule="evenodd" clip-rule="evenodd" d="M64.9675 0.0295315C65.4244 0.0295315 65.879 0.0394249 66.3311 0.0590096C56.9367 2.93388 50.1043 11.6845 50.1043 22.0332C50.1043 31.133 55.387 38.9971 63.0488 42.7176C70.2192 45.7152 76.0981 51.1918 79.6191 58.0776L79.8307 58.2745L79.9474 58.3016L79.7784 58.3935C81.9703 62.797 83.2033 67.7632 83.2033 73.0177C83.2033 91.1457 68.529 105.841 50.4274 105.841C34.6718 105.841 21.5127 94.708 18.3665 79.8685C24.5427 87.9182 37.8732 88.6221 44.7729 82.0579C50.8169 76.3077 52.2548 66.2131 42.3166 52.3156C40.2723 50.1291 38.5411 47.6469 37.1928 44.9399L37.0589 44.6825C36.8328 44.2377 36.62 43.7886 36.4202 43.3355L36.4454 43.3243C34.8384 39.5708 33.9486 35.4362 33.9486 31.0935C33.9486 13.9374 47.8362 0.0295315 64.9675 0.0295315Z" fill="url(#paint1_linear_34_6500)"/>
<defs>
<linearGradient id="paint0_linear_34_6500" x1="60.3075" y1="0" x2="60.3075" y2="120" gradientUnits="userSpaceOnUse">
<stop stop-color="#FFE47F"/>
<stop offset="1" stop-color="#FF8126"/>
</linearGradient>
<linearGradient id="paint1_linear_34_6500" x1="50.7849" y1="0.0295315" x2="50.7849" y2="105.841" gradientUnits="userSpaceOnUse">
<stop stop-color="#FFBD5B"/>
<stop offset="0.533697" stop-color="#FF8126"/>
<stop offset="1" stop-color="#FFE47F"/>
</linearGradient>
</defs>
</svg>
