<svg width="121" height="120" viewBox="0 0 121 120" fill="none" xmlns="http://www.w3.org/2000/svg">
<circle cx="60.5" cy="60" r="60" fill="#0D2D44"/>
<circle cx="60.5" cy="60" r="58.75" stroke="white" stroke-opacity="0.1" stroke-width="2.5"/>
<path fill-rule="evenodd" clip-rule="evenodd" d="M90.5 30C90.5 40.9352 81.7239 49.8207 70.8307 49.9973L70.5 50C81.5457 50 90.5 58.9543 90.5 70C90.5 81.0457 81.5457 90 70.5 90H30.5C30.5 78.9543 39.4543 70 50.5 70L50.1693 69.9973C39.2761 69.8207 30.5 60.9352 30.5 50C30.5 39.2415 38.9947 30.4671 49.6427 30.018L49.6429 30H90.5ZM70.4375 55.5C70.2167 59.9334 69.2782 63.3377 67.622 65.7127C65.9657 68.0877 63.5917 69.4334 60.5 69.75C63.5917 70.0666 65.9657 71.4123 67.622 73.7873C69.2782 76.1623 70.2167 79.5666 70.4375 84C70.6583 79.5666 71.5968 76.1623 73.253 73.7873C74.9093 71.4123 77.2833 70.0666 80.375 69.75C77.2833 69.4334 74.9093 68.0877 73.253 65.7127C71.5968 63.3377 70.6583 59.9334 70.4375 55.5ZM50.5625 35.625C50.3417 40.0584 49.4032 43.4627 47.747 45.8377C46.0907 48.2127 43.7167 49.5584 40.625 49.875C43.7167 50.1916 46.0907 51.5373 47.747 53.9123C49.4032 56.2873 50.3417 59.6916 50.5625 64.125C50.7833 59.6916 51.7218 56.2873 53.378 53.9123C55.0343 51.5373 57.4083 50.1916 60.5 49.875C57.4083 49.5584 55.0343 48.2127 53.378 45.8377C51.7218 43.4627 50.7833 40.0584 50.5625 35.625Z" fill="url(#paint0_linear_1534_1260)"/>
<defs>
<linearGradient id="paint0_linear_1534_1260" x1="60.5" y1="30" x2="60.5" y2="90" gradientUnits="userSpaceOnUse">
<stop offset="0.0733791" stop-color="#33F3FF"/>
<stop offset="0.903515" stop-color="#0068A9"/>
</linearGradient>
</defs>
</svg>
