<svg width="40" height="40" viewBox="0 0 40 40" fill="none" xmlns="http://www.w3.org/2000/svg">
<g id="ic/&#230;&#156;&#170;&#231;&#159;&#165;token">
<g id="&#231;&#188;&#150;&#231;&#187;&#132; 2">
<circle id="&#230;&#164;&#173;&#229;&#156;&#134;&#229;&#189;&#162;" cx="20" cy="20" r="20" fill="#5F7195"/>
</g>
<path id="&#229;&#189;&#162;&#231;&#138;&#182;" fill-rule="evenodd" clip-rule="evenodd" d="M27 16.2425C27 16.805 26.9201 17.33 26.765 17.82C26.61 18.31 26.4307 18.7075 26.2369 19.0175C26.0382 19.3275 25.7621 19.635 25.4011 19.9475C25.0401 20.26 24.7519 20.4875 24.5314 20.6275C24.3085 20.77 24.0033 20.9525 23.6084 21.1825C23.1941 21.4225 22.8477 21.76 22.5691 22.1975C22.2929 22.635 22.1524 22.9825 22.1524 23.2475C22.1524 23.425 22.0919 23.5925 21.9707 23.7575C21.8496 23.9175 21.7091 24 21.5468 24H17.9129C17.7603 24 17.6319 23.905 17.5277 23.71C17.4236 23.515 17.3678 23.3225 17.3678 23.125V22.425C17.3678 21.56 17.6949 20.745 18.3514 19.98C19.0079 19.215 19.7299 18.6475 20.5172 18.2825C21.1131 18 21.5371 17.71 21.789 17.4075C22.041 17.105 22.1694 16.71 22.1694 16.22C22.1694 15.7825 21.9344 15.3975 21.4644 15.0625C20.9969 14.73 20.4518 14.5625 19.8364 14.5625C19.1799 14.5625 18.6348 14.7125 18.1988 15.015C17.8451 15.275 17.3024 15.8775 16.5781 16.8125C16.4473 16.98 16.2922 17.0625 16.1105 17.0625C15.9894 17.0625 15.861 17.02 15.7302 16.9375L13.2446 14.985C13.1138 14.88 13.0339 14.7525 13.0096 14.5925C12.983 14.435 13.012 14.29 13.092 14.155C14.7079 11.3875 17.0529 10 20.1223 10C20.9314 10 21.743 10.16 22.5618 10.4825C23.3807 10.805 24.1171 11.2375 24.7737 11.78C25.4302 12.3225 25.9656 12.9875 26.3798 13.7725C26.7941 14.5525 27 15.38 27 16.2425V16.2425ZM22.2154 25.625V29.375C22.2154 29.5425 22.1548 29.6875 22.0337 29.8125C21.9126 29.9375 21.7721 30 21.6098 30H17.9735C17.8112 30 17.6707 29.9375 17.5495 29.8125C17.4284 29.6875 17.3678 29.5425 17.3678 29.375V25.625C17.3678 25.4575 17.4284 25.3125 17.5495 25.1875C17.6707 25.0625 17.8112 25 17.9735 25H21.6098C21.7721 25 21.9126 25.0625 22.0337 25.1875C22.1548 25.3125 22.2154 25.455 22.2154 25.625Z" fill="white"/>
</g>
</svg>
