<?xml version="1.0" encoding="UTF-8"?>
<svg width="24px" height="24px" viewBox="0 0 24 24" version="1.1" xmlns="http://www.w3.org/2000/svg" xmlns:xlink="http://www.w3.org/1999/xlink">
    <title>切片</title>
    <defs>
        <linearGradient x1="50%" y1="0%" x2="50%" y2="100%" id="linearGradient-1">
            <stop stop-color="#1EF1BD" offset="0%"></stop>
            <stop stop-color="#099F78" offset="100%"></stop>
        </linearGradient>
    </defs>
    <g id="WEB" stroke="none" stroke-width="1" fill="none" fill-rule="evenodd">
        <g id="Claim_loading" transform="translate(-35.000000, -279.000000)">
            <g id="编组-11备份" transform="translate(35.000000, 277.000000)">
                <g id="编组-2" transform="translate(0.000000, 2.000000)">
                    <circle id="椭圆形" fill="url(#linearGradient-1)" cx="12" cy="12" r="12"></circle>
                    <path d="M16.5865109,8.79300764 L16.5865109,6.6 L7.4338821,6.6 L7.4338821,8.79300764 L10.8089219,8.79300764 L10.8089219,10.2258393 C8.06606479,10.3471174 6,10.8772401 6,11.5136374 C6,12.1500347 8.06606479,12.6801574 10.8089219,12.8014355 L10.8089219,17.4 L13.2127456,17.4 L13.2127456,12.8001852 C15.9454063,12.6776569 18,12.1475342 18,11.5136374 C18,10.8784904 15.9454063,10.349618 13.2127456,10.2270896 L13.2127456,8.79300764 L16.5865109,8.79300764 Z M16.9663303,11.3848576 C16.9663303,11.8037046 15.3693043,12.1550359 13.2127456,12.2525585 L13.0738184,12.2588099 L13.0572491,12.2588099 L12.9259692,12.2638111 L12.911949,12.2638111 C12.8150823,12.2675619 12.7169411,12.2700625 12.6162507,12.2725631 L12.6111524,12.2725631 L12.4773234,12.2750637 L12.4390866,12.2750637 L12.3332979,12.276314 L11.6654275,12.276314 L11.5609134,12.2750637 L11.5252257,12.2750637 L11.4003186,12.2725631 L11.387573,12.2725631 C11.2397238,12.2688122 11.0944238,12.2650614 10.9503983,12.2588099 L10.9491237,12.2588099 L10.8063728,12.2525585 C8.63834307,12.1562862 7.03112055,11.8037046 7.03112055,11.3836073 C7.03112055,10.9635101 8.63834307,10.6121787 10.8063728,10.5146562 L10.8063728,11.8449641 C11.1823686,11.8637185 11.582581,11.8749711 11.9980882,11.8749711 C12.4199681,11.8749711 12.8278279,11.8637185 13.2101965,11.8437138 L13.2101965,10.518407 C15.3693043,10.6146793 16.9663303,10.9660107 16.9663303,11.3848576 L16.9663303,11.3848576 Z" id="形状" fill="#FFFFFF" fill-rule="nonzero"></path>
                </g>
            </g>
        </g>
    </g>
</svg>