<svg width="33" height="32" viewBox="0 0 33 32" fill="none" xmlns="http://www.w3.org/2000/svg">
<g clip-path="url(#clip0_2537_142249)">
<path d="M0.507812 15.9868C0.507813 20.227 2.19224 24.2936 5.19053 27.2919C8.18882 30.2902 12.2554 31.9746 16.4956 31.9746C20.7358 31.9746 24.8024 30.2902 27.8007 27.2919C30.799 24.2936 32.4834 20.227 32.4834 15.9868C32.4834 11.7466 30.799 7.68003 27.8007 4.68174C24.8024 1.68345 20.7358 -0.000976562 16.4956 -0.000976562C12.2554 -0.000976562 8.18882 1.68345 5.19053 4.68174C2.19224 7.68003 0.507813 11.7466 0.507812 15.9868Z" fill="#4A5878"/>
<path d="M23.1881 19.159C23.7381 19.937 24.3685 20.44 25.0795 20.668C24.771 21.6204 24.2814 22.613 23.6107 23.6459C22.5778 25.2019 21.5584 25.9799 20.5523 25.9799C20.1767 25.9799 19.6201 25.8524 18.8823 25.5976C18.1982 25.3427 17.6013 25.2153 17.0915 25.2153C16.5818 25.2153 16.0184 25.3494 15.4014 25.6177C14.7575 25.8726 14.2277 26 13.8119 26C12.6046 26 11.4175 24.9738 10.2505 22.9215C9.0835 20.896 8.5 18.9041 8.5 16.9457C8.5 15.1348 8.94266 13.6526 9.82797 12.499C10.7401 11.3454 11.8669 10.7686 13.2083 10.7686C13.5034 10.7686 13.832 10.8055 14.1942 10.8793C14.5563 10.9531 14.9319 11.0905 15.3209 11.2917C15.7368 11.5198 16.0788 11.6774 16.3471 11.7646C16.6154 11.8518 16.8233 11.8954 16.9708 11.8954C17.1452 11.8954 17.4135 11.8551 17.7757 11.7746C18.1378 11.6942 18.5 11.5466 18.8622 11.332C19.2512 11.1174 19.5865 10.9564 19.8682 10.8491C20.1499 10.7418 20.4383 10.6881 20.7334 10.6881C21.6724 10.6881 22.5174 10.943 23.2686 11.4527C23.671 11.721 24.0801 12.1167 24.496 12.6398C23.8789 13.1764 23.4296 13.6459 23.1479 14.0483C22.6247 14.7995 22.3632 15.6177 22.3632 16.503C22.3632 17.4822 22.6382 18.3675 23.1881 19.159ZM19.1439 9.76258C18.6744 10.2052 18.2451 10.4936 17.8561 10.6278C17.722 10.668 17.551 10.7049 17.3431 10.7384C17.1351 10.772 16.897 10.8021 16.6288 10.829C16.6422 9.64856 16.9507 8.62911 17.5543 7.77062C18.1579 6.91214 19.1506 6.32193 20.5322 6C20.559 6.13414 20.5791 6.22803 20.5926 6.28169V6.50302C20.5926 6.98592 20.4785 7.52918 20.2505 8.1328C20.0091 8.723 19.6402 9.26626 19.1439 9.76258Z" fill="white"/>
</g>
<defs>
<clipPath id="clip0_2537_142249">
<rect width="32" height="32" fill="white" transform="translate(0.5)"/>
</clipPath>
</defs>
</svg>
