<svg width="33" height="32" viewBox="0 0 33 32" fill="none" xmlns="http://www.w3.org/2000/svg">
<g clip-path="url(#clip0_2537_142240)">
<path d="M16.5 0C25.337 0 32.5 7.163 32.5 16C32.5 24.837 25.337 32 16.5 32C7.663 32 0.5 24.837 0.5 16C0.5 7.163 7.663 0 16.5 0Z" fill="#6C7FA6" fill-opacity="0.5"/>
<path d="M27.3275 13.9053H16.375V18.159H22.6912C22.3943 18.9603 21.9467 19.6974 21.3725 20.3303C21.0062 20.7428 20.5975 21.1128 20.14 21.424L23.6737 24.259C25.1288 22.9987 26.2307 21.3812 26.8712 19.5659C27.5116 17.7505 27.6684 15.7997 27.3263 13.9053" fill="#278BE6"/>
<path d="M20.1422 21.4253C19.0337 22.1862 17.7205 22.5933 16.3759 22.5928C14.3847 22.5928 12.6159 21.709 11.3859 20.3303C10.8176 19.695 10.3763 18.9567 10.0859 18.1553L7.22094 20.3303L6.46094 20.909C7.38896 22.742 8.80679 24.2819 10.557 25.3578C12.3073 26.4337 14.3214 27.0035 16.3759 27.004C17.0772 27.004 17.7609 26.9315 18.4259 26.8078C20.3727 26.4436 22.1861 25.5639 23.6772 24.2603L20.1422 21.4253Z" fill="#15B457"/>
<path d="M9.6625 15.8777C9.6625 15.0527 9.8325 14.2714 10.105 13.5402L6.50375 10.7627C5.68003 12.3419 5.24992 14.0966 5.25 15.8777C5.25 16.9327 5.4075 17.9502 5.68125 18.9177C5.81875 19.4027 5.985 19.8752 6.18375 20.3302C6.27 20.5277 6.365 20.7177 6.46125 20.9089L7.2225 20.3314L10.085 18.1564C9.98906 17.902 9.90891 17.642 9.845 17.3777C9.72759 16.8862 9.66636 16.383 9.6625 15.8777Z" fill="#F0BB2F"/>
<path d="M18.4238 4.9425C17.7478 4.8155 17.0615 4.75106 16.3738 4.75C12.3888 4.75 8.9025 6.85 6.9375 10C6.8125 10.2 6.685 10.4 6.5725 10.6087C6.5475 10.6575 6.525 10.7087 6.5 10.7587L10.1013 13.54C10.265 13.1012 10.4663 12.6825 10.7138 12.2925C11.1263 11.6425 11.6525 11.0825 12.2563 10.6087C13.3963 9.71625 14.8138 9.16125 16.3738 9.16125C17.0925 9.16125 17.7738 9.29625 18.4238 9.505C19.1863 9.75125 19.8862 10.125 20.5012 10.6087C20.6012 10.6862 20.7138 10.7487 20.8063 10.8325L21.0313 10.6075L23.9263 7.705C22.3899 6.28259 20.4821 5.32436 18.4238 4.94125" fill="#EC3838"/>
</g>
<defs>
<clipPath id="clip0_2537_142240">
<rect width="32" height="32" fill="white" transform="translate(0.5)"/>
</clipPath>
</defs>
</svg>
