<svg width="21" height="20" viewBox="0 0 21 20" fill="none" xmlns="http://www.w3.org/2000/svg">
<path fill-rule="evenodd" clip-rule="evenodd" d="M4.5 3.5C4.22386 3.5 4 3.72386 4 4V16C4 16.2761 4.22386 16.5 4.5 16.5H16.5C16.7761 16.5 17 16.2761 17 16V12H18V16C18 16.8284 17.3284 17.5 16.5 17.5H4.5C3.67157 17.5 3 16.8284 3 16V4C3 3.17157 3.67157 2.5 4.5 2.5H8.5V3.5H4.5ZM16.2929 3.5H10.5V2.5H16.5C17.3284 2.5 18 3.17157 18 4V10H17V4.20711L7.85355 13.3536L7.14645 12.6464L16.2929 3.5Z" fill="#5F7195"/>
</svg>
