<svg width="21" height="20" viewBox="0 0 21 20" fill="none" xmlns="http://www.w3.org/2000/svg">
<path fill-rule="evenodd" clip-rule="evenodd" d="M10.3577 20C7.48992 19.9256 5.10137 18.9472 3.19204 17.0647C1.28271 15.1823 0.290304 12.8274 0.214844 10C0.290311 7.17261 1.28271 4.8177 3.19204 2.93527C5.10138 1.05283 7.48992 0.0743973 10.3577 0C13.2255 0.0744047 15.614 1.05283 17.5234 2.93527C19.4327 4.81771 20.4251 7.17261 20.5006 10C20.4251 12.8274 19.4327 15.1823 17.5234 17.0647C15.614 18.9472 13.2255 19.9256 10.3577 20ZM10.3577 1.81818C8.00928 1.875 6.05346 2.67401 4.49026 4.2152C2.92705 5.75639 2.11664 7.68465 2.059 10C2.11663 12.3153 2.92705 14.2436 4.49026 15.7848C6.05347 17.326 8.00928 18.125 10.3577 18.1818C12.7061 18.125 14.6619 17.326 16.2251 15.7848C17.7884 14.2436 18.5988 12.3153 18.6564 10C18.5988 7.68465 17.7884 5.75638 16.2251 4.2152C14.6619 2.67401 12.7061 1.87501 10.3577 1.81818ZM15.6542 6.59161C15.489 6.43963 15.3031 6.36364 15.0966 6.36364C14.8901 6.36364 14.7043 6.43963 14.5391 6.59161L8.7405 12.5697L6.18814 9.8846C6.02294 9.73262 5.83709 9.65241 5.63059 9.64396C5.42409 9.63552 5.23824 9.71151 5.07303 9.87194C4.90783 10.0324 4.82523 10.2223 4.82523 10.4419C4.82523 10.6614 4.89957 10.8556 5.04825 11.0245L8.19534 14.3175C8.2449 14.3513 8.30272 14.385 8.3688 14.4188L8.44314 14.4948C8.54226 14.5286 8.64138 14.5455 8.7405 14.5455C8.83962 14.5455 8.93874 14.5286 9.03786 14.4948L9.13698 14.4188C9.18654 14.4019 9.24436 14.3681 9.31044 14.3175L15.6542 7.73149C15.8194 7.57951 15.8978 7.39375 15.8896 7.17422C15.8813 6.95469 15.8028 6.76049 15.6542 6.59161Z" fill="#14C394"/>
</svg>
