<svg width="22" height="24" viewBox="0 0 22 24" fill="none" xmlns="http://www.w3.org/2000/svg">
<path d="M9.09091 0.75V2.625H12.9091V0.75H16.7273L16.7275 2.70281C19.4361 3.14922 21.5 5.46289 21.5 8.25C21.5 9.69079 20.9485 11.0051 20.0414 12.0002C20.9485 12.9952 21.5 14.3093 21.5 15.75C21.5 18.5371 19.4361 20.8508 16.7275 21.2972L16.7273 23.25H12.9091V21.375H9.09091V23.25H5.27273V21.375H4.31818C2.20946 21.375 0.5 19.6961 0.5 17.625V6.375C0.5 4.30393 2.20946 2.625 4.31818 2.625H5.27273V0.75H9.09091ZM15.7727 6.375H4.31818V10.125H9.09091V13.875H4.31818V17.625H15.7727C16.8271 17.625 17.6818 16.7855 17.6818 15.75C17.6818 14.7145 16.8271 13.875 15.7727 13.875H12.9091V10.125H15.7727C16.8271 10.125 17.6818 9.28553 17.6818 8.25C17.6818 7.21447 16.8271 6.375 15.7727 6.375Z" fill="white"/>
</svg>
