<svg width="21" height="20" viewBox="0 0 21 20" fill="none" xmlns="http://www.w3.org/2000/svg">
<path fill-rule="evenodd" clip-rule="evenodd" d="M3.19204 17.0647C5.10137 18.9472 7.48992 19.9256 10.3577 20C13.2255 19.9256 15.614 18.9472 17.5234 17.0647C19.4327 15.1823 20.4251 12.8274 20.5006 10C20.4251 7.17261 19.4327 4.81771 17.5234 2.93527C15.614 1.05283 13.2255 0.0744047 10.3577 0C7.48992 0.0743973 5.10138 1.05283 3.19204 2.93527C1.28271 4.8177 0.290311 7.17261 0.214844 10C0.290304 12.8274 1.28271 15.1823 3.19204 17.0647ZM4.49026 4.2152C6.05346 2.67401 8.00928 1.875 10.3577 1.81818C12.7061 1.87501 14.6619 2.67401 16.2251 4.2152C17.7884 5.75638 18.5988 7.68465 18.6564 10C18.5988 12.3153 17.7884 14.2436 16.2251 15.7848C14.6619 17.326 12.7061 18.125 10.3577 18.1818C8.00928 18.125 6.05347 17.326 4.49026 15.7848C2.92705 14.2436 2.11663 12.3153 2.059 10C2.11664 7.68465 2.92705 5.75639 4.49026 4.2152ZM9.5 5C9.5 4.44772 9.94772 4 10.5 4C11.0523 4 11.5 4.44772 11.5 5V12C11.5 12.5523 11.0523 13 10.5 13C9.94772 13 9.5 12.5523 9.5 12V5ZM10.5 16C9.94772 16 9.5 15.5523 9.5 15C9.5 14.4477 9.94772 14 10.5 14C11.0523 14 11.5 14.4477 11.5 15C11.5 15.5523 11.0523 16 10.5 16Z" fill="#F53D54"/>
</svg>
