<svg width="24" height="24" viewBox="0 0 24 24" fill="none" xmlns="http://www.w3.org/2000/svg">
<path fill-rule="evenodd" clip-rule="evenodd" d="M17.1424 3.17145H6.85313L1.70312 12L6.85313 20.8286H17.1424L22.2924 12L17.1424 3.17145ZM16.4526 4.37042L20.9022 12L16.4526 19.6284H7.54022L3.09063 12L7.54022 4.37042H16.4526ZM11.9969 7.80004C9.67728 7.80004 7.79688 9.68044 7.79688 12C7.79688 14.3196 9.67728 16.2 11.9969 16.2C14.3165 16.2 16.1969 14.3196 16.1969 12C16.1969 9.68044 14.3165 7.80004 11.9969 7.80004ZM11.9969 9.00004C13.6537 9.00004 14.9969 10.3432 14.9969 12C14.9969 13.6569 13.6537 15 11.9969 15C10.34 15 8.99688 13.6569 8.99688 12C8.99688 10.3432 10.34 9.00004 11.9969 9.00004Z" fill="#5F7195"/>
</svg>
