<svg width="20" height="20" viewBox="0 0 20 20" fill="none" xmlns="http://www.w3.org/2000/svg">
<path fill-rule="evenodd" clip-rule="evenodd" d="M6.75 1.58337C6.50646 1.58337 6.29834 1.75885 6.25719 1.99889L5.82843 4.5H4.58301H2.5V5.5H4.11423L4.91738 17.9489C4.93435 18.212 5.1527 18.4167 5.41634 18.4167H14.583C14.8467 18.4167 15.065 18.212 15.082 17.9489L15.8851 5.5H17.5V4.5H15.4163H14.1716L13.7428 1.99889C13.7017 1.75885 13.4935 1.58337 13.25 1.58337H6.75ZM13.157 4.5H6.84302L7.17158 2.58337H12.8284L13.157 4.5ZM5.88512 17.4167L5.11631 5.5H14.883L14.1142 17.4167H5.88512ZM7.91699 15.0834H12.0837V14.0834H7.91699V15.0834Z" fill="#848e9c"/>
</svg>
