<svg width="33" height="32" viewBox="0 0 33 32" fill="none" xmlns="http://www.w3.org/2000/svg">
<g clip-path="url(#clip0_2537_142246)">
<path d="M0.507812 15.9868C0.507813 20.227 2.19224 24.2936 5.19053 27.2919C8.18882 30.2902 12.2554 31.9746 16.4956 31.9746C20.7358 31.9746 24.8024 30.2902 27.8007 27.2919C30.799 24.2936 32.4834 20.227 32.4834 15.9868C32.4834 11.7466 30.799 7.68003 27.8007 4.68174C24.8024 1.68345 20.7358 -0.000976562 16.4956 -0.000976562C12.2554 -0.000976562 8.18882 1.68345 5.19053 4.68174C2.19224 7.68003 0.507813 11.7466 0.507812 15.9868Z" fill="#278BE6"/>
<path d="M13.7026 10.0473V12.7286H11.7383V16.0074H13.7026V25.75H17.7378V16.0074H20.4456C20.4456 16.0074 20.6993 14.4349 20.822 12.7162H17.7532V10.4742C17.7532 10.1394 18.1929 9.68877 18.6279 9.68877H20.8265V6.27539H17.8372C13.6027 6.27519 13.7026 9.55707 13.7026 10.0473Z" fill="white"/>
</g>
<defs>
<clipPath id="clip0_2537_142246">
<rect width="32" height="32" fill="white" transform="translate(0.5)"/>
</clipPath>
</defs>
</svg>
