<?xml version="1.0" encoding="UTF-8"?>
<svg width="24px" height="24px" viewBox="0 0 24 24" version="1.1" xmlns="http://www.w3.org/2000/svg" xmlns:xlink="http://www.w3.org/1999/xlink">
    <title>slice</title>
    <defs>
        <linearGradient x1="50%" y1="0%" x2="50%" y2="100%" id="linearGradient-1">
            <stop stop-color="#FFA338" offset="0%"></stop>
            <stop stop-color="#E67729" offset="100%"></stop>
        </linearGradient>
    </defs>
    <g id="WEB" stroke="none" stroke-width="1" fill="none" fill-rule="evenodd">
        <g id="header_setttings_h5" transform="translate(-514.000000, -422.000000)">
            <g id="group-3" transform="translate(490.000000, 328.000000)">
                <g id="list" transform="translate(24.000000, 76.000000)">
                    <g id="group" transform="translate(0.000000, 13.000000)">
                        <g id="group-2" transform="translate(0.000000, 5.000000)">
                            <circle id="oval" fill="url(#linearGradient-1)" cx="12" cy="12" r="12"></circle>
                            <path d="M11.4165773,4.60155747 L12.6904772,4.91683908 L12.1573203,7.07105253 L13.2462981,7.34063097 L13.779455,5.18606596 L15.0530034,5.50134758 L14.5152527,7.67506104 C16.0895515,8.18874133 17.5182797,9.25008631 17.1119198,10.8916976 C16.8391539,11.9930739 16.2875751,12.4057853 15.3991053,12.6310668 C16.1618328,13.0168719 17.2043809,13.7200446 16.7502319,15.5558124 C16.3708252,17.088322 15.2042692,18.2878078 12.069453,17.5577054 L12.069453,17.5577054 L11.5207336,19.7753173 L10.2468103,19.4600357 L10.7955531,17.2434784 L9.70659872,16.9739 L9.15783245,19.1904573 L7.88393253,18.8751522 L8.43267536,16.6589231 L5.76799257,15.9993207 L6.41449332,14.5333971 L7.42197887,14.7827959 C7.67245572,14.8447881 7.9275029,14.6910614 7.98951859,14.4405845 L7.98951859,14.4405845 L9.44512966,8.55858551 C9.53653602,8.1880382 9.30944982,7.81184245 8.93927751,7.7200611 L8.93927751,7.7200611 L7.89919036,7.46252955 L8.23608138,6.10078577 L10.8834204,6.75579435 L11.4165773,4.60155747 Z M10.8405297,12.5138089 L10.1015679,15.5001483 L10.9379595,15.6999532 C11.6329994,15.8661018 12.4343519,16.0042426 13.0783683,15.8806331 C13.6288689,15.774672 14.0532756,15.526703 14.214104,14.8762882 C14.3104556,14.4859362 14.2002758,14.1465373 13.9721584,13.8595917 C13.5512907,13.3303489 12.7177585,12.9760906 11.9624842,12.7897389 L10.8405297,12.5138089 Z M11.8246715,8.53730423 L11.1529988,11.2501746 C11.897281,11.4343935 12.5158207,11.5672374 13.0103526,11.5976828 C13.4673375,11.6256672 13.8233535,11.5477374 14.0837444,11.3982529 C14.3611276,11.2395574 14.5315184,10.9961821 14.6300263,10.5990566 C14.7228389,10.2239156 14.58962,9.87214173 14.3561588,9.61350861 C13.740455,8.93192188 12.5243051,8.710531 11.8246715,8.53730423 Z" id="shape" fill="#FFFFFF" fill-rule="nonzero"></path>
                        </g>
                    </g>
                </g>
            </g>
        </g>
    </g>
</svg>