<svg width="40" height="40" viewBox="0 0 40 40" fill="none" xmlns="http://www.w3.org/2000/svg">
<g id="Property 1=BNB">
<g id="&#231;&#188;&#150;&#231;&#187;&#132; 2">
<circle id="&#230;&#164;&#173;&#229;&#156;&#134;&#229;&#189;&#162;" cx="20" cy="20" r="20" fill="#101010"/>
<path id="&#229;&#189;&#162;&#231;&#138;&#182;&#231;&#187;&#147;&#229;&#144;&#136;" fill-rule="evenodd" clip-rule="evenodd" d="M19.7704 5.43723L18.6216 6.59705L16.2907 8.91779L16.307 8.93401L10.722 14.5729L14.2034 18.0885L19.8132 12.4246L25.375 17.9616L28.8708 14.481L19.7865 5.43723L19.7784 5.44533L19.7704 5.43723ZM5.49146 20.1219L8.97288 16.6063L12.4543 20.1219L8.97288 23.6375L5.49146 20.1219ZM23.2684 20.1219L19.787 16.6063L16.3056 20.1219L19.787 23.6407L23.2684 20.1219ZM30.5186 16.6063L27.0372 20.1219L30.5186 23.6375L34 20.1219L30.5186 16.6063ZM19.9096 27.6956L14.2267 22.0376L10.7309 25.5182L16.4214 31.1838L16.4147 31.1905L19.787 34.5628L19.8015 34.5492L19.8152 34.5628L20.2897 34.0904L29.111 25.7995L25.178 22.4271L19.9096 27.6956Z" fill="#F5B638"/>
</g>
</g>
</svg>
