<svg width="40" height="40" viewBox="0 0 40 40" fill="none" xmlns="http://www.w3.org/2000/svg">
<rect width="40" height="40" rx="20" fill="white"/>
<mask id="mask0_54_69824" style="mask-type:alpha" maskUnits="userSpaceOnUse" x="0" y="0" width="40" height="40">
<circle cx="20" cy="20" r="20" fill="black"/>
</mask>
<g mask="url(#mask0_54_69824)">
<path fill-rule="evenodd" clip-rule="evenodd" d="M8 9C8 8.44772 8.44772 8 9 8H15C15.5523 8 16 8.44772 16 9V15C16 15.5523 15.5523 16 15 16H9C8.44772 16 8 15.5523 8 15V9ZM24 9C24 8.44772 24.4477 8 25 8H31C31.5523 8 32 8.44772 32 9V15C32 15.5523 31.5523 16 31 16H25C24.4477 16 24 15.5523 24 15V9ZM17 16C16.4477 16 16 16.4477 16 17V23C16 23.5523 16.4477 24 17 24H23C23.5523 24 24 23.5523 24 23V17C24 16.4477 23.5523 16 23 16H17ZM8 25C8 24.4477 8.44772 24 9 24H15C15.5523 24 16 24.4477 16 25V31C16 31.5523 15.5523 32 15 32H9C8.44772 32 8 31.5523 8 31V25ZM25 24C24.4477 24 24 24.4477 24 25V31C24 31.5523 24.4477 32 25 32H31C31.5523 32 32 31.5523 32 31V25C32 24.4477 31.5523 24 31 24H25Z" fill="#20263C"/>
</g>
</svg>
